#!OML:ASF X:\für Bonn\!DataBase\2005_08_10_Bjorn_Final\c3d\bjorn.ASF
:FULLY-SPECIFIED
:DEGREES
61
root -28.4806 19.0282 -23.2773 -1433.6 -14.2402 0.573082
lowerback -6.55175 1.20462 -2.70454
upperback 8.41743 2.24483 -2.65385
thorax 12.8462 0.964373 -0.995671
lowerneck 0.208377 0.120381 -0.366784
upperneck 11.2974 0.0382722 1.16478
head 3.60967 0.0382257 0.446016
rclavicle -1.70955e-014 -7.95139e-016
rhumerus -30.1045 -12.8689 -92.3631
rradius 31.7951
rwrist 3.43036
rhand -16.6296 17.7765
rfingers 7.12502
rthumb 9.5927 -11.9852
lclavicle -1.70955e-014 -7.95139e-016
lhumerus -37.7504 -25.7048 95.7209
lradius 54.0323
lwrist 3.88767
lhand -31.8059 -16.6041
lfingers 7.12502
lthumb -5.06129 13.3155
rfemur -14.542 -4.72387 16.1219
rtibia 35.9063
rfoot -21.5999 18.7916
rtoes -5.27212
lfemur -11.9848 9.08937 -22.3341
ltibia 32.2652
lfoot -23.2026 -12.1159
ltoes -4.62043
62
root -28.4759 19.0242 -23.2331 -1433.54 -14.2849 0.659958
lowerback -6.56432 1.13523 -2.85011
upperback 8.42321 2.17551 -2.70617
thorax 12.8588 0.92046 -0.983598
lowerneck 0.159432 0.237002 -0.437576
upperneck 11.1541 0.200142 1.14426
head 3.56721 0.114338 0.455984
rclavicle 1.35174e-014 1.82882e-014
rhumerus -30.2253 -12.9949 -92.2649
rradius 31.1195
rwrist 3.76223
rhand -16.4634 17.6927
rfingers 7.12502
rthumb 9.75306 -12.0615
lclavicle 1.35174e-014 1.82882e-014
lhumerus -37.4833 -25.7061 95.6755
lradius 53.6502
lwrist 4.70741
lhand -31.9896 -16.6589
lfingers 7.12502
lthumb -5.23866 13.2564
rfemur -14.7326 -4.45846 15.9704
rtibia 36.3467
rfoot -21.8185 18.567
rtoes -6.05741
lfemur -11.8431 8.93796 -22.4934
ltibia 32.1209
lfoot -23.3122 -12.2666
ltoes -4.41242
63
root -28.4713 19.0181 -23.1887 -1433.49 -14.318 0.750417
lowerback -6.57053 1.06762 -2.99899
upperback 8.44343 2.10881 -2.75344
thorax 12.8842 0.876977 -0.964016
lowerneck 0.101349 0.350473 -0.487917
upperneck 11.0229 0.35937 1.0989
head 3.53073 0.189213 0.45422
rclavicle 2.82274e-014 1.66979e-014
rhumerus -30.3155 -13.2222 -92.1194
rradius 30.4164
rwrist 4.20882
rhand -16.2815 17.636
rfingers 7.12502
rthumb 9.92861 -12.1098
lclavicle 2.82274e-014 1.66979e-014
lhumerus -37.1994 -25.7266 95.6277
lradius 53.3849
lwrist 5.56758
lhand -32.0947 -16.6543
lfingers 7.12502
lthumb -5.34014 13.2584
rfemur -14.9354 -4.14667 15.8144
rtibia 36.8424
rfoot -22.0499 18.2801
rtoes -6.89879
lfemur -11.6934 8.69166 -22.6554
ltibia 31.9953
lfoot -23.4173 -12.4431
ltoes -4.06556
64
root -28.4667 19.0105 -23.1426 -1433.44 -14.338 0.840611
lowerback -6.58887 1.01369 -3.11172
upperback 8.47289 2.06062 -2.83122
thorax 12.931 0.847387 -0.994873
lowerneck 0.0147196 0.448304 -0.465722
upperneck 10.8613 0.497418 1.0353
head 3.48946 0.256081 0.433222
rclavicle 5.1684e-015 1.59028e-015
rhumerus -30.364 -13.641 -91.9914
rradius 29.6697
rwrist 4.78079
rhand -16.1315 17.572
rfingers 7.12502
rthumb 10.0733 -12.1669
lclavicle 5.1684e-015 1.59028e-015
lhumerus -36.8583 -25.8293 95.5298
lradius 53.1349
lwrist 6.32716
lhand -32.2175 -16.6119
lfingers 7.12502
lthumb -5.45878 13.2978
rfemur -15.1759 -3.89638 15.6547
rtibia 37.3969
rfoot -22.2348 18.0211
rtoes -7.78299
lfemur -11.5665 8.35678 -22.8315
ltibia 31.9012
lfoot -23.5166 -12.6442
ltoes -3.40011
65
root -28.462 19.0008 -23.0958 -1433.38 -14.3873 0.946051
lowerback -6.61399 0.969464 -3.25502
upperback 8.50465 2.02722 -2.88311
thorax 12.9827 0.82017 -0.977784
lowerneck -0.0862026 0.556729 -0.535839
upperneck 10.7218 0.649908 0.999519
head 3.4585 0.327594 0.438
rclavicle -2.0276e-014 -3.97569e-015
rhumerus -30.4273 -14.0181 -91.8044
rradius 28.9501
rwrist 5.27712
rhand -15.9444 17.5132
rfingers 7.12502
rthumb 10.2538 -12.2168
lclavicle -2.0276e-014 -3.97569e-015
lhumerus -36.5265 -25.869 95.4832
lradius 52.9862
lwrist 7.02516
lhand -32.2798 -16.5743
lfingers 7.12502
lthumb -5.51893 13.3339
rfemur -15.4715 -3.73592 15.4555
rtibia 38.0197
rfoot -22.247 17.9941
rtoes -8.40535
lfemur -11.4501 8.07502 -23.0277
ltibia 31.8323
lfoot -23.6029 -12.9209
ltoes -2.76102
66
root -28.4573 18.9904 -23.048 -1433.34 -14.4473 1.09358
lowerback -6.59778 0.939415 -3.41528
upperback 8.51169 2.01607 -2.97475
thorax 12.9812 0.805069 -0.991136
lowerneck -0.155794 0.655561 -0.510895
upperneck 10.5913 0.789896 0.921756
head 3.42526 0.395078 0.412104
rclavicle 1.39149e-014 -3.18055e-015
rhumerus -30.5324 -14.5503 -91.6078
rradius 28.2052
rwrist 5.9044
rhand -15.7724 17.4539
rfingers 7.12502
rthumb 10.4197 -12.2679
lclavicle 1.39149e-014 -3.18055e-015
lhumerus -36.2384 -25.9792 95.419
lradius 52.9123
lwrist 7.8425
lhand -32.2958 -16.5923
lfingers 7.12502
lthumb -5.53437 13.3154
rfemur -15.7923 -3.52674 15.2057
rtibia 38.7056
rfoot -22.221 17.9832
rtoes -9.03608
lfemur -11.34 7.77058 -23.2738
ltibia 31.7943
lfoot -23.6897 -13.2365
ltoes -1.797
67
root -28.4527 18.9774 -22.9999 -1433.33 -14.4953 1.22008
lowerback -6.56159 0.905875 -3.57249
upperback 8.53562 1.99684 -3.04441
thorax 12.9861 0.784878 -0.984017
lowerneck -0.225916 0.767565 -0.532594
upperneck 10.4299 0.945404 0.885472
head 3.38115 0.470044 0.408122
rclavicle -1.47101e-014 -2.22639e-014
rhumerus -30.659 -15.0503 -91.3994
rradius 27.5293
rwrist 6.48505
rhand -15.554 17.3341
rfingers 7.12502
rthumb 10.6304 -12.3771
lclavicle -1.47101e-014 -2.22639e-014
lhumerus -35.9167 -26.0495 95.3704
lradius 52.8948
lwrist 8.57657
lhand -32.3622 -16.5907
lfingers 7.12502
lthumb -5.59841 13.3154
rfemur -16.119 -3.29214 14.9765
rtibia 39.4495
rfoot -22.0365 17.9896
rtoes -9.29865
lfemur -11.2126 7.44093 -23.4952
ltibia 31.7768
lfoot -23.7725 -13.5883
ltoes -0.69181
68
root -28.4469 18.9627 -22.951 -1433.33 -14.5452 1.3243
lowerback -6.47944 0.867176 -3.70192
upperback 8.56793 1.9628 -3.10026
thorax 12.9724 0.759613 -0.980478
lowerneck -0.317693 0.894472 -0.544802
upperneck 10.284 1.12441 0.804515
head 3.34676 0.555457 0.388893
rclavicle -7.95139e-016 -5.56597e-015
rhumerus -30.8046 -15.5975 -91.1291
rradius 26.8568
rwrist 7.1744
rhand -15.3272 17.2471
rfingers 7.12502
rthumb 10.8491 -12.4527
lclavicle -7.95139e-016 -5.56597e-015
lhumerus -35.5642 -26.0437 95.3142
lradius 52.933
lwrist 9.19374
lhand -32.4036 -16.5686
lfingers 7.12502
lthumb -5.6384 13.3364
rfemur -16.4505 -3.08347 14.7619
rtibia 40.244
rfoot -21.7386 18.0684
rtoes -9.56938
lfemur -11.0589 7.04638 -23.7042
ltibia 31.7778
lfoot -23.8842 -13.8232
ltoes 0.257243
69
root -28.4423 18.9473 -22.9002 -1433.38 -14.5927 1.44481
lowerback -6.35597 0.848262 -3.8356
upperback 8.60088 1.95492 -3.17262
thorax 12.9343 0.747714 -0.988492
lowerneck -0.276337 1.01932 -0.523461
upperneck 10.0182 1.29929 0.722239
head 3.24627 0.640142 0.361508
rclavicle 1.59028e-015 3.65764e-014
rhumerus -31.0211 -16.0772 -90.8812
rradius 26.2587
rwrist 7.70313
rhand -15.1032 17.1293
rfingers 7.12502
rthumb 11.0652 -12.559
lclavicle 1.59028e-015 3.65764e-014
lhumerus -35.2561 -26.128 95.2478
lradius 53.0851
lwrist 9.77562
lhand -32.4803 -16.5513
lfingers 7.12502
lthumb -5.71242 13.3517
rfemur -16.7739 -2.72677 14.5071
rtibia 41.0911
rfoot -21.2415 18.269
rtoes -8.80115
lfemur -10.8588 6.6778 -23.9246
ltibia 31.7874
lfoot -23.9711 -14.0847
ltoes 1.2107
70
root -28.4372 18.931 -22.8488 -1433.44 -14.6325 1.54284
lowerback -6.1964 0.817984 -3.9406
upperback 8.62981 1.92481 -3.24369
thorax 12.8697 0.728256 -1.01509
lowerneck -0.26065 1.17364 -0.543436
upperneck 9.77511 1.50963 0.696726
head 3.15817 0.742968 0.360801
rclavicle 1.90833e-014 6.20208e-014
rhumerus -31.2488 -16.6385 -90.6073
rradius 25.6581
rwrist 8.3542
rhand -14.8698 17.0367
rfingers 7.12502
rthumb 11.2904 -12.6395
lclavicle 1.90833e-014 6.20208e-014
lhumerus -34.9047 -26.1203 95.1404
lradius 53.2623
lwrist 10.1173
lhand -32.571 -16.4857
lfingers 7.12502
lthumb -5.80004 13.4149
rfemur -17.12 -2.37846 14.2615
rtibia 41.9874
rfoot -20.6421 18.5662
rtoes -7.73182
lfemur -10.6533 6.27535 -24.126
ltibia 31.8186
lfoot -24.0251 -14.306
ltoes 2.1581
71
root -28.4315 18.9146 -22.7962 -1433.49 -14.6607 1.64302
lowerback -6.03164 0.800772 -4.05023
upperback 8.6611 1.91127 -3.30531
thorax 12.8041 0.715679 -1.02585
lowerneck -0.236144 1.30352 -0.54574
upperneck 9.52042 1.68944 0.636589
head 3.06549 0.83037 0.344602
rclavicle -2.10712e-014 -2.14687e-014
rhumerus -31.5107 -17.2048 -90.2815
rradius 25.1299
rwrist 8.94191
rhand -14.5499 16.889
rfingers 7.12502
rthumb 11.5988 -12.77
lclavicle -2.10712e-014 -2.14687e-014
lhumerus -34.566 -26.1237 95.0639
lradius 53.5339
lwrist 10.4438
lhand -32.6718 -16.4942
lfingers 7.12502
lthumb -5.89738 13.4037
rfemur -17.5144 -2.08062 14.0196
rtibia 42.9486
rfoot -20.0644 18.8308
rtoes -6.98568
lfemur -10.4553 5.85075 -24.3333
ltibia 31.8641
lfoot -24.0929 -14.446
ltoes 3.08416
72
root -28.4272 18.8963 -22.7425 -1433.55 -14.669 1.72476
lowerback -5.85928 0.767566 -4.15895
upperback 8.69733 1.87346 -3.35077
thorax 12.7392 0.690595 -1.02352
lowerneck -0.232901 1.46362 -0.559648
upperneck 9.26058 1.90896 0.586192
head 2.97511 0.937547 0.334539
rclavicle 2.0276e-014 -4.13472e-014
rhumerus -31.7778 -17.7144 -89.9543
rradius 24.6228
rwrist 9.46743
rhand -14.1946 16.684
rfingers 7.12502
rthumb 11.9415 -12.9554
lclavicle 2.0276e-014 -4.13472e-014
lhumerus -34.244 -26.1108 94.9938
lradius 53.8977
lwrist 10.7354
lhand -32.9175 -16.6196
lfingers 7.12502
lthumb -6.13458 13.2716
rfemur -17.9186 -1.76691 13.801
rtibia 43.9679
rfoot -19.4992 19.0602
rtoes -6.34645
lfemur -10.25 5.45439 -24.5182
ltibia 31.9369
lfoot -24.1933 -14.5236
ltoes 3.68793
73
root -28.4209 18.8756 -22.6882 -1433.62 -14.6697 1.82278
lowerback -5.67432 0.752509 -4.23395
upperback 8.73211 1.85814 -3.42716
thorax 12.6668 0.681483 -1.07003
lowerneck -0.220837 1.61228 -0.510132
upperneck 8.97705 2.11091 0.537336
head 2.87631 1.03843 0.313119
rclavicle -9.93923e-015 1.59028e-015
rhumerus -32.0464 -18.3707 -89.6117
rradius 24.1187
rwrist 10.0579
rhand -13.8469 16.4417
rfingers 7.12502
rthumb 12.2767 -13.178
lclavicle -9.93923e-015 1.59028e-015
lhumerus -33.9155 -26.1767 94.9096
lradius 54.2963
lwrist 10.9579
lhand -33.1936 -16.8359
lfingers 7.12502
lthumb -6.40115 13.0474
rfemur -18.3723 -1.5228 13.5505
rtibia 45.0681
rfoot -18.9796 19.3501
rtoes -5.97395
lfemur -10.054 4.98671 -24.733
ltibia 32.0189
lfoot -24.2053 -14.5505
ltoes 4.72686
